<svg width="100" height="100" viewBox="0 0 100 100" fill="none" xmlns="http://www.w3.org/2000/svg">
<g clip-path="url(#clip0_52_4)">
<circle cx="50" cy="50" r="50" fill="#D9D9D9"/>
<path fill-rule="evenodd" clip-rule="evenodd" d="M83.0214 40.2724C84.7953 38.5765 85.141 37.3837 85.0471 36.7157C84.9532 36.0478 84.2976 35.0367 82.147 34.0532C80.0971 33.1157 77.1225 32.4157 73.3811 32.03C65.9216 31.2611 55.7568 31.7743 44.6754 33.7856C33.5939 35.797 23.7943 38.9075 16.9169 42.2786C13.4675 43.9695 10.8329 45.6876 9.14208 47.304C7.36816 48.9999 7.02243 50.1927 7.11634 50.8607C7.21026 51.5286 7.86585 52.5397 10.0165 53.5232C12.0664 54.4607 15.041 55.1607 18.7824 55.5463C26.2419 56.3153 36.4067 55.8021 47.4881 53.7908C58.5695 51.7794 68.3691 48.6689 75.2465 45.2978C78.696 43.6069 81.3306 41.8888 83.0214 40.2724ZM47.7236 55.466C70.0579 51.4122 91.6201 41.7567 90.7133 35.3072C89.8065 28.8577 66.7741 28.0565 44.4398 32.1104C22.1055 36.1642 4.73511 44.6788 5.64191 51.1283C6.54871 57.5778 25.3893 59.5198 47.7236 55.466Z" fill="#002B4A"/>
<path fill-rule="evenodd" clip-rule="evenodd" d="M85.0645 48.6315C86.9343 47.0742 87.3495 45.9104 87.2951 45.2368C87.2407 44.5632 86.6461 43.5046 84.5582 42.3598C82.5681 41.2686 79.6414 40.344 75.9311 39.6748C68.5336 38.3406 58.3614 38.0799 47.1863 39.2444C36.0113 40.4089 26.0505 42.7676 18.99 45.6084C15.4487 47.0333 12.7189 48.5473 10.9367 50.0316C9.06688 51.5888 8.65168 52.7526 8.70606 53.4263C8.76043 54.0999 9.35502 55.1585 11.4429 56.3033C13.433 57.3945 16.3597 58.319 20.07 58.9882C27.4675 60.3224 37.6398 60.5831 48.8148 59.4186C59.9899 58.2541 69.9507 55.8954 77.0112 53.0546C80.5524 51.6297 83.2823 50.1158 85.0645 48.6315ZM48.9512 61.108C71.4741 58.761 93.5565 50.7661 93.0315 44.2621C92.5065 37.7581 69.5729 35.208 47.05 37.555C24.527 39.9021 6.69416 47.0772 7.21917 53.5812C7.74418 60.0852 26.4282 63.455 48.9512 61.108Z" fill="#002B4A"/>
<path fill-rule="evenodd" clip-rule="evenodd" d="M86.0033 58.6267C87.9623 57.2182 88.4465 56.0893 88.4328 55.4131C88.419 54.7368 87.8894 53.6345 85.8752 52.3304C83.9554 51.0873 81.0911 49.9378 77.4297 48.9822C70.1296 47.077 59.9968 46.0275 48.7779 46.3221C37.5589 46.6166 27.4796 48.1968 20.2648 50.483C16.6462 51.6298 13.8317 52.9284 11.9644 54.2709C10.0054 55.6794 9.52118 56.8083 9.53493 57.4845C9.54869 58.1608 10.0783 59.2631 12.0925 60.5672C14.0123 61.8103 16.8766 62.9598 20.538 63.9154C27.838 65.8206 37.9709 66.8701 49.1898 66.5755C60.4087 66.281 70.4881 64.7008 77.7029 62.4146C81.3215 61.2678 84.136 59.9692 86.0033 58.6267ZM49.2243 68.2716C71.8357 67.6779 94.3472 61.4154 94.2144 54.8858C94.0816 48.3563 71.3548 44.0324 48.7434 44.6261C26.132 45.2197 7.90941 50.9942 8.0422 57.5237C8.175 64.0532 26.6128 68.8652 49.2243 68.2716Z" fill="#002B4A"/>
<path d="M19.7066 40.2108C19.7066 41.9806 18.4439 43.4153 16.8863 43.4153C15.3286 43.4153 14.0659 41.9806 14.0659 40.2108C14.0659 38.4411 15.3286 37.0064 16.8863 37.0064C18.4439 37.0064 19.7066 38.4411 19.7066 40.2108Z" fill="#C90000"/>
</g>
<defs>
<clipPath id="clip0_52_4">
<rect width="100" height="100" fill="white"/>
</clipPath>
</defs>
</svg>
